<svg width="64" height="64" viewBox="0 0 64 64" fill="none" xmlns="http://www.w3.org/2000/svg">
<circle cx="32" cy="32" r="32" fill="white"/>
<path d="M25.275 30.4875C27.075 34.025 29.975 36.9125 33.5125 38.725L36.2625 35.975C36.6 35.6375 37.1 35.525 37.5375 35.675C38.9375 36.1375 40.45 36.3875 42 36.3875C42.6875 36.3875 43.25 36.95 43.25 37.6375V42C43.25 42.6875 42.6875 43.25 42 43.25C30.2625 43.25 20.75 33.7375 20.75 22C20.75 21.3125 21.3125 20.75 22 20.75H26.375C27.0625 20.75 27.625 21.3125 27.625 22C27.625 23.5625 27.875 25.0625 28.3375 26.4625C28.475 26.9 28.375 27.3875 28.025 27.7375L25.275 30.4875Z" fill="black"/>
</svg>
