<svg width="64" height="64" viewBox="0 0 64 64" fill="none" xmlns="http://www.w3.org/2000/svg">
<circle cx="32" cy="32" r="32" fill="white"/>
<g clip-path="url(#clip0_19_6)">
<path d="M31 19C28.5136 19 26.129 19.9877 24.3709 21.7459C22.6127 23.504 21.625 25.8886 21.625 28.375C21.625 37.75 31 49 31 49C31 49 40.375 37.75 40.375 28.375C40.375 25.8886 39.3873 23.504 37.6291 21.7459C35.871 19.9877 33.4864 19 31 19ZM31 34.1181C30.2458 34.1181 29.499 33.9696 28.8022 33.681C28.1054 33.3923 27.4723 32.9693 26.939 32.436C26.4057 31.9027 25.9827 31.2696 25.694 30.5728C25.4054 29.876 25.2569 29.1292 25.2569 28.375C25.2569 27.6208 25.4054 26.874 25.694 26.1772C25.9827 25.4804 26.4057 24.8473 26.939 24.314C27.4723 23.7807 28.1054 23.3577 28.8022 23.069C29.499 22.7804 30.2458 22.6319 31 22.6319C32.5232 22.6319 33.984 23.237 35.061 24.314C36.138 25.391 36.7431 26.8518 36.7431 28.375C36.7431 29.8982 36.138 31.359 35.061 32.436C33.984 33.513 32.5232 34.1181 31 34.1181ZM27.3681 28.375C27.3681 27.4113 27.751 26.487 28.4324 25.8056C29.1139 25.1241 30.0381 24.7413 31.0019 24.7413C31.9656 24.7413 32.8899 25.1241 33.5713 25.8056C34.2528 26.487 34.6356 27.4113 34.6356 28.375C34.6356 29.3387 34.2528 30.263 33.5713 30.9444C32.8899 31.6259 31.9656 32.0087 31.0019 32.0087C30.0381 32.0087 29.1139 31.6259 28.4324 30.9444C27.751 30.263 27.3681 29.3387 27.3681 28.375Z" fill="black"/>
</g>
<defs>
<clipPath id="clip0_19_6">
<rect width="30" height="30" fill="white" transform="translate(16 19)"/>
</clipPath>
</defs>
</svg>
