<svg width="64" height="64" viewBox="0 0 64 64" fill="none" xmlns="http://www.w3.org/2000/svg">
<circle cx="32" cy="32" r="32" fill="white"/>
<g clip-path="url(#clip0_19_7)">
<path d="M32 11.1665C43.5062 11.1665 52.8333 20.4936 52.8333 31.9998C52.8333 43.5061 43.5062 52.8332 32 52.8332C20.4937 52.8332 11.1667 43.5061 11.1667 31.9998C11.1667 20.4936 20.4937 11.1665 32 11.1665ZM32 15.3332C27.5797 15.3332 23.3405 17.0891 20.2149 20.2147C17.0893 23.3403 15.3333 27.5796 15.3333 31.9998C15.3333 36.4201 17.0893 40.6593 20.2149 43.785C23.3405 46.9106 27.5797 48.6665 32 48.6665C36.4203 48.6665 40.6595 46.9106 43.7851 43.785C46.9107 40.6593 48.6667 36.4201 48.6667 31.9998C48.6667 27.5796 46.9107 23.3403 43.7851 20.2147C40.6595 17.0891 36.4203 15.3332 32 15.3332ZM32 19.4998C32.5103 19.4999 33.0028 19.6872 33.3841 20.0263C33.7654 20.3654 34.009 20.8326 34.0687 21.3394L34.0833 21.5832V31.1373L39.7229 36.7769C40.0965 37.1518 40.3135 37.6549 40.3296 38.184C40.3458 38.713 40.16 39.2284 39.8099 39.6254C39.4598 40.0224 38.9718 40.2713 38.4448 40.3215C37.9179 40.3717 37.3916 40.2194 36.9729 39.8957L36.7771 39.7228L30.5271 33.4728C30.2033 33.1487 29.9953 32.7269 29.9354 32.2728L29.9167 31.9998V21.5832C29.9167 21.0306 30.1362 20.5007 30.5269 20.11C30.9176 19.7193 31.4475 19.4998 32 19.4998Z" fill="black"/>
</g>
<defs>
<clipPath id="clip0_19_7">
<rect width="50" height="50" fill="white" transform="translate(7 7)"/>
</clipPath>
</defs>
</svg>
