<svg width="102" height="102" viewBox="0 0 102 102" fill="none" xmlns="http://www.w3.org/2000/svg">
<circle cx="51" cy="51" r="51" fill="#FF0A0A"/>
<g clip-path="url(#clip0_18_3)">
<path d="M50.5 28C44.1227 28 43.3207 28.0294 40.8151 28.141C38.3094 28.2585 36.6027 28.6521 35.1075 29.2337C33.5384 29.8222 32.1175 30.7477 30.9451 31.9451C29.7477 33.1175 28.8222 34.5384 28.2337 36.1075C27.6521 37.5997 27.2556 39.3094 27.141 41.8062C27.0294 44.3178 27 45.1168 27 51.5029C27 57.8832 27.0294 58.6822 27.141 61.1879C27.2585 63.6906 27.6521 65.3973 28.2337 66.8925C28.8359 68.4376 29.6379 69.7477 30.9451 71.0549C32.2493 72.3621 33.5594 73.167 35.1046 73.7663C36.6027 74.3479 38.3064 74.7444 40.8092 74.859C43.3178 74.9706 44.1168 75 50.5 75C56.8832 75 57.6793 74.9706 60.1879 74.859C62.6877 74.7415 64.4002 74.3479 65.8954 73.7663C67.4635 73.1774 68.8833 72.2519 70.0549 71.0549C71.3621 69.7477 72.1641 68.4376 72.7663 66.8925C73.3449 65.3973 73.7415 63.6906 73.859 61.1879C73.9706 58.6822 74 57.8832 74 51.5C74 45.1168 73.9706 44.3178 73.859 41.8092C73.7415 39.3094 73.3449 37.5997 72.7663 36.1075C72.1778 34.5384 71.2523 33.1175 70.0549 31.9451C68.8825 30.7477 67.4616 29.8222 65.8925 29.2337C64.3944 28.6521 62.6847 28.2556 60.1849 28.141C57.6763 28.0294 56.8803 28 50.4941 28H50.5ZM48.3938 32.2359H50.5029C56.7774 32.2359 57.5206 32.2564 59.9969 32.371C62.2882 32.4738 63.5337 32.8586 64.3621 33.1788C65.4577 33.6048 66.2421 34.1159 67.0646 34.9384C67.8871 35.7609 68.3953 36.5422 68.8212 37.6409C69.1443 38.4663 69.5262 39.7118 69.629 42.0031C69.7436 44.4794 69.7671 45.2226 69.7671 51.4941C69.7671 57.7657 69.7436 58.5118 69.629 60.9881C69.5262 63.2794 69.1414 64.5219 68.8212 65.3503C68.4418 66.3693 67.8408 67.2914 67.0616 68.0499C66.2391 68.8724 65.4578 69.3806 64.3591 69.8065C63.5366 70.1296 62.2911 70.5115 59.9969 70.6173C57.5206 70.7289 56.7774 70.7553 50.5029 70.7553C44.2284 70.7553 43.4823 70.7289 41.006 70.6173C38.7148 70.5115 37.4722 70.1296 36.6438 69.8065C35.624 69.4283 34.7009 68.8283 33.9413 68.0499C33.1607 67.2908 32.5587 66.3677 32.1788 65.3474C31.8586 64.5219 31.4738 63.2764 31.371 60.9852C31.2594 58.5089 31.2359 57.7657 31.2359 51.4882C31.2359 45.2108 31.2594 44.4735 31.371 41.9972C31.4767 39.7059 31.8586 38.4604 32.1818 37.6321C32.6077 36.5364 33.1188 35.7521 33.9413 34.9296C34.7638 34.1071 35.5452 33.5989 36.6438 33.1729C37.4722 32.8498 38.7148 32.4679 41.006 32.3622C43.1739 32.2623 44.014 32.2329 48.3938 32.23V32.2359ZM63.0461 36.1369C62.6757 36.1369 62.309 36.2098 61.9669 36.3515C61.6248 36.4933 61.3139 36.701 61.052 36.9628C60.7902 37.2247 60.5824 37.5356 60.4407 37.8777C60.299 38.2198 60.2261 38.5865 60.2261 38.9569C60.2261 39.3272 60.299 39.6939 60.4407 40.036C60.5824 40.3782 60.7902 40.6891 61.052 40.9509C61.3139 41.2128 61.6248 41.4205 61.9669 41.5622C62.309 41.7039 62.6757 41.7769 63.0461 41.7769C63.794 41.7769 64.5112 41.4798 65.0401 40.9509C65.569 40.4221 65.8661 39.7048 65.8661 38.9569C65.8661 38.209 65.569 37.4917 65.0401 36.9628C64.5112 36.434 63.794 36.1369 63.0461 36.1369ZM50.5029 39.4327C48.9022 39.4078 47.3125 39.7015 45.8264 40.2968C44.3402 40.8921 42.9874 41.7771 41.8466 42.9002C40.7057 44.0234 39.7998 45.3623 39.1813 46.839C38.5629 48.3156 38.2445 49.9005 38.2445 51.5015C38.2445 53.1024 38.5629 54.6873 39.1813 56.164C39.7998 57.6406 40.7057 58.9795 41.8466 60.1027C42.9874 61.2259 44.3402 62.1108 45.8264 62.7061C47.3125 63.3014 48.9022 63.5952 50.5029 63.5702C53.6712 63.5208 56.6929 62.2275 58.9159 59.9695C61.1389 57.7116 62.3848 54.6701 62.3848 51.5015C62.3848 48.3329 61.1389 45.2913 58.9159 43.0334C56.6929 40.7754 53.6712 39.4822 50.5029 39.4327ZM50.5029 43.6657C51.5318 43.6657 52.5505 43.8683 53.501 44.262C54.4515 44.6558 55.3152 45.2328 56.0426 45.9603C56.7701 46.6878 57.3472 47.5514 57.7409 48.5019C58.1346 49.4524 58.3372 50.4712 58.3372 51.5C58.3372 52.5288 58.1346 53.5476 57.7409 54.4981C57.3472 55.4486 56.7701 56.3122 56.0426 57.0397C55.3152 57.7672 54.4515 58.3442 53.501 58.738C52.5505 59.1317 51.5318 59.3343 50.5029 59.3343C48.4251 59.3343 46.4325 58.5089 44.9632 57.0397C43.494 55.5705 42.6686 53.5778 42.6686 51.5C42.6686 49.4222 43.494 47.4295 44.9632 45.9603C46.4325 44.4911 48.4251 43.6657 50.5029 43.6657Z" fill="white"/>
</g>
<defs>
<clipPath id="clip0_18_3">
<rect width="47" height="47" fill="white" transform="translate(27 28)"/>
</clipPath>
</defs>
</svg>
