<svg width="100%" height="100%" viewBox="0 0 92 92" version="1.1" xmlns="http://www.w3.org/2000/svg" xmlns:xlink="http://www.w3.org/1999/xlink" xml:space="preserve" xmlns:serif="http://www.serif.com/" style="fill-rule:evenodd;clip-rule:evenodd;stroke-linejoin:round;stroke-miterlimit:2;">
    <g transform="matrix(1,0,0,1,-411.739,-102.736)">
        <g class="fade-in" transform="matrix(2.3991,0,0,1.75812,102.45,72.2044)">
            <g transform="matrix(0.416822,0,0,0.56879,-42.7036,-41.0691)">
                <path d="M445.544,104.335C443.219,111.791 441.463,119.961 440.39,128.629C431.018,129.62 422.187,131.405 414.161,133.846C419.031,119.502 430.819,108.338 445.544,104.335Z" style="fill:white;"/>
            </g>
        </g>
        <g class="fade-in" transform="matrix(2.3991,0,0,1.75812,102.45,72.2044)">
            <g transform="matrix(0.416822,0,0,0.56879,-42.7036,-41.0691)">
                <path d="M412.909,138.25C421.137,135.65 430.246,133.746 439.941,132.694C439.44,137.848 439.178,143.155 439.178,148.578C439.178,152.29 439.301,155.949 439.539,159.533C429.647,158.433 420.372,156.446 412.027,153.738C411.836,152.041 411.739,150.321 411.739,148.578C411.739,145.028 412.143,141.572 412.909,138.25Z" style="fill:white;"/>
            </g>
        </g>
        <g class="fade-in" transform="matrix(2.3991,0,0,1.75812,102.45,72.2044)">
            <g transform="matrix(0.416822,0,0,0.56879,-42.7036,-41.0691)">
                <path d="M412.704,157.973C420.962,160.598 430.113,162.521 439.858,163.585C440.823,174.095 442.781,183.961 445.544,192.82C429.039,188.334 416.224,174.849 412.704,157.973Z" style="fill:white;"/>
            </g>
        </g>
        <g class="fade-in" transform="matrix(2.3991,0,0,1.75812,102.45,72.2044)">
            <g transform="matrix(0.416822,0,0,0.56879,-42.7036,-41.0691)">
                <path d="M449.862,103.385C452.369,102.958 454.949,102.736 457.58,102.736C460.211,102.736 462.791,102.958 465.299,103.385C467.739,110.987 469.583,119.355 470.707,128.253C466.426,127.911 462.042,127.733 457.58,127.733C453.118,127.733 448.734,127.911 444.454,128.253C445.577,119.356 447.421,110.988 449.862,103.385Z" style="fill:white;"/>
            </g>
        </g>
        <g class="fade-in" transform="matrix(2.3991,0,0,1.75812,102.45,72.2044)">
            <g transform="matrix(0.416822,0,0,0.56879,-42.7036,-41.0691)">
                <path d="M471.164,132.306C466.735,131.94 462.199,131.75 457.58,131.75C452.961,131.75 448.425,131.94 443.996,132.306C443.469,137.581 443.194,143.019 443.194,148.578C443.194,152.425 443.326,156.215 443.582,159.93C448.141,160.319 452.816,160.522 457.58,160.522C462.344,160.522 467.02,160.319 471.579,159.93C471.834,156.215 471.966,152.425 471.966,148.578C471.966,143.019 471.691,137.581 471.164,132.306Z" style="fill:white;"/>
            </g>
        </g>
        <g class="fade-in" transform="matrix(2.3991,0,0,1.75812,102.45,72.2044)">
            <g transform="matrix(0.416822,0,0,0.56879,-42.7036,-41.0691)">
                <path d="M445.5,175.879C444.828,172.024 444.295,168.048 443.911,163.974C448.366,164.345 452.931,164.538 457.58,164.538C462.23,164.538 466.794,164.345 471.249,163.974C470.238,174.715 468.186,184.777 465.299,193.771C462.791,194.197 460.211,194.419 457.58,194.419C454.949,194.419 452.369,194.197 449.862,193.771C449.621,193.02 449.386,192.261 449.157,191.497L445.5,175.879Z" style="fill:white;"/>
            </g>
        </g>
        <g class="fade-in" transform="matrix(2.3991,0,0,1.75812,102.45,72.2044)">
            <g transform="matrix(0.416822,0,0,0.56879,-42.7036,-41.0691)">
                <path d="M469.616,104.335C484.339,108.337 496.127,119.5 500.999,133.846C492.975,131.405 484.144,129.62 474.77,128.629C473.698,119.963 471.942,111.793 469.616,104.335Z" style="fill:white;"/>
            </g>
        </g>
        <g class="fade-in" transform="matrix(2.3991,0,0,1.75812,102.45,72.2044)">
            <g transform="matrix(0.416822,0,0,0.56879,-42.7036,-41.0691)">
                <path d="M503.134,153.738C494.789,156.446 485.514,158.433 475.622,159.533C475.86,155.949 475.982,152.29 475.982,148.578C475.982,143.155 475.721,137.848 475.219,132.694C484.915,133.747 494.024,135.651 502.252,138.251C503.017,141.572 503.422,145.028 503.422,148.578C503.422,150.321 503.324,152.041 503.134,153.738Z" style="fill:white;"/>
            </g>
        </g>
        <g class="fade-in" transform="matrix(2.3991,0,0,1.75812,102.45,72.2044)">
            <g transform="matrix(0.416822,0,0,0.56879,-42.7036,-41.0691)">
                <path d="M502.456,157.972C498.937,174.849 486.122,188.334 469.617,192.82C472.38,183.959 474.338,174.094 475.302,163.585C485.047,162.521 494.197,160.598 502.456,157.972Z" style="fill:white;"/>
            </g>
        </g>
    </g>
</svg>
