<?xml version="1.0" encoding="UTF-8" standalone="no"?>
<!DOCTYPE svg PUBLIC "-//W3C//DTD SVG 1.1//EN" "http://www.w3.org/Graphics/SVG/1.1/DTD/svg11.dtd">
<svg width="100%" height="100%" viewBox="0 0 381 98" version="1.1" xmlns="http://www.w3.org/2000/svg" xmlns:xlink="http://www.w3.org/1999/xlink" xml:space="preserve" xmlns:serif="http://www.serif.com/" style="fill-rule:evenodd;clip-rule:evenodd;stroke-linejoin:round;stroke-miterlimit:2;">
    <g transform="matrix(1,0,0,1,-410.454,-251.319)">
        <g transform="matrix(2.3991,0,0,1.75812,102.45,72.2044)">
            <g transform="matrix(0.416822,0,0,0.56879,-34.5655,46.8426)">
                <path d="M429.053,193.771C426.165,184.778 424.114,174.717 423.101,163.974C427.557,164.345 432.121,164.538 436.771,164.538C441.42,164.538 445.985,164.345 450.44,163.974C449.428,174.715 447.377,184.777 444.489,193.771C441.982,194.197 439.402,194.419 436.771,194.419C434.139,194.419 431.56,194.197 429.053,193.771ZM391.895,157.973C400.152,160.598 409.303,162.521 419.049,163.585C420.013,174.095 421.972,183.961 424.735,192.82C408.23,188.334 395.415,174.849 391.895,157.973ZM481.647,157.972C478.127,174.849 465.313,188.334 448.807,192.82C451.57,183.959 453.529,174.094 454.492,163.585C464.237,162.521 473.387,160.598 481.647,157.972ZM450.355,132.306C445.925,131.94 441.39,131.75 436.771,131.75C432.151,131.75 427.616,131.94 423.186,132.306C422.66,137.581 422.385,143.019 422.385,148.578C422.385,152.425 422.517,156.215 422.772,159.93C427.331,160.319 432.007,160.522 436.771,160.522C441.535,160.522 446.21,160.319 450.769,159.93C451.025,156.215 451.157,152.425 451.157,148.578C451.157,143.019 450.881,137.581 450.355,132.306ZM392.099,138.25C400.327,135.65 409.436,133.746 419.132,132.694C418.63,137.848 418.368,143.155 418.368,148.578C418.368,152.29 418.491,155.949 418.729,159.533C408.837,158.433 399.562,156.446 391.217,153.738C391.027,152.041 390.929,150.321 390.929,148.578C390.929,145.028 391.334,141.572 392.099,138.25ZM482.324,153.738C473.979,156.446 464.704,158.433 454.812,159.533C455.05,155.949 455.173,152.29 455.173,148.578C455.173,143.155 454.911,137.848 454.41,132.694C464.106,133.747 473.215,135.651 481.442,138.251C482.208,141.572 482.612,145.028 482.612,148.578C482.612,150.321 482.515,152.041 482.324,153.738ZM424.735,104.335C422.409,111.791 420.653,119.961 419.581,128.629C410.208,129.62 401.378,131.405 393.352,133.846C398.222,119.502 410.009,108.338 424.735,104.335ZM448.806,104.335C463.53,108.337 475.317,119.5 480.19,133.846C472.166,131.405 463.334,129.62 453.961,128.629C452.888,119.963 451.133,111.793 448.806,104.335ZM429.052,103.385C431.56,102.958 434.139,102.736 436.771,102.736C439.402,102.736 441.982,102.958 444.489,103.385C446.93,110.987 448.774,119.355 449.897,128.253C445.617,127.911 441.233,127.733 436.771,127.733C432.309,127.733 427.925,127.911 423.644,128.253C424.767,119.356 426.611,110.988 429.052,103.385Z" style="fill-opacity:0.32;"/>
            </g>
        </g>
        <g transform="matrix(2.3991,0,0,1.75812,102.45,72.2044)">
            <g transform="matrix(1.75826,0,0,2.3993,-415.971,-412.314)">
                <text x="335.773px" y="233.612px" style="font-family:'SANYOCyr-BlackItalic', 'SANYO Cyr';font-weight:900;font-style:italic;font-size:12px;fill:rgb(45,87,130);">RAMNET</text>
            </g>
        </g>
        <g transform="matrix(2.3991,0,0,1.75812,102.45,72.2044)">
            <g transform="matrix(1.75826,0,0,2.3993,-415.971,-416.835)">
                <text x="335.773px" y="233.612px" style="font-family:'SANYOCyr-BlackItalic', 'SANYO Cyr';font-weight:900;font-style:italic;font-size:12px;fill:white;">RAMNET</text>
            </g>
        </g>
        <g transform="matrix(2.3991,0,0,1.75812,102.45,72.2044)">
            <g transform="matrix(1.07139,0,0,1.46201,-109.135,-225.94)">
                <text x="335.773px" y="233.612px" style="font-family:'SANYOCyr-BlackItalic', 'SANYO Cyr';font-weight:900;font-style:italic;font-size:12px;fill:white;">home</text>
            </g>
        </g>
        <g transform="matrix(2.3991,0,0,1.75812,102.45,72.2044)">
            <g transform="matrix(0.416822,0,0,0.56879,-34.0297,43.4432)">
                <path d="M429.053,193.771C426.165,184.778 424.114,174.717 423.101,163.974C427.557,164.345 432.121,164.538 436.771,164.538C441.42,164.538 445.985,164.345 450.44,163.974C449.428,174.715 447.377,184.777 444.489,193.771C441.982,194.197 439.402,194.419 436.771,194.419C434.139,194.419 431.56,194.197 429.053,193.771ZM391.895,157.973C400.152,160.598 409.303,162.521 419.049,163.585C420.013,174.095 421.972,183.961 424.735,192.82C408.23,188.334 395.415,174.849 391.895,157.973ZM481.647,157.972C478.127,174.849 465.313,188.334 448.807,192.82C451.57,183.959 453.529,174.094 454.492,163.585C464.237,162.521 473.387,160.598 481.647,157.972ZM450.355,132.306C445.925,131.94 441.39,131.75 436.771,131.75C432.151,131.75 427.616,131.94 423.186,132.306C422.66,137.581 422.385,143.019 422.385,148.578C422.385,152.425 422.517,156.215 422.772,159.93C427.331,160.319 432.007,160.522 436.771,160.522C441.535,160.522 446.21,160.319 450.769,159.93C451.025,156.215 451.157,152.425 451.157,148.578C451.157,143.019 450.881,137.581 450.355,132.306ZM392.099,138.25C400.327,135.65 409.436,133.746 419.132,132.694C418.63,137.848 418.368,143.155 418.368,148.578C418.368,152.29 418.491,155.949 418.729,159.533C408.837,158.433 399.562,156.446 391.217,153.738C391.027,152.041 390.929,150.321 390.929,148.578C390.929,145.028 391.334,141.572 392.099,138.25ZM482.324,153.738C473.979,156.446 464.704,158.433 454.812,159.533C455.05,155.949 455.173,152.29 455.173,148.578C455.173,143.155 454.911,137.848 454.41,132.694C464.106,133.747 473.215,135.651 481.442,138.251C482.208,141.572 482.612,145.028 482.612,148.578C482.612,150.321 482.515,152.041 482.324,153.738ZM424.735,104.335C422.409,111.791 420.653,119.961 419.581,128.629C410.208,129.62 401.378,131.405 393.352,133.846C398.222,119.502 410.009,108.338 424.735,104.335ZM448.806,104.335C463.53,108.337 475.317,119.5 480.19,133.846C472.166,131.405 463.334,129.62 453.961,128.629C452.888,119.963 451.133,111.793 448.806,104.335ZM429.052,103.385C431.56,102.958 434.139,102.736 436.771,102.736C439.402,102.736 441.982,102.958 444.489,103.385C446.93,110.987 448.774,119.355 449.897,128.253C445.617,127.911 441.233,127.733 436.771,127.733C432.309,127.733 427.925,127.911 423.644,128.253C424.767,119.356 426.611,110.988 429.052,103.385Z" style="fill:white;"/>
            </g>
        </g>
    </g>
</svg>
